<?xml version="1.0" encoding="UTF-8"?>
<svg id="Capa_2" data-name="Capa 2" xmlns="http://www.w3.org/2000/svg" viewBox="0 0 348.57 89.15">
  <defs>
    <style>
      .cls-1 {
        fill: #fff;
      }

      .cls-2 {
        fill: #92c644;
      }
    </style>
  </defs>
  <g id="Capa_2-2" data-name="Capa 2">
    <g>
      <path class="cls-2" d="M348.57,44.35c0-22.63-16.96-41.29-38.86-44v-.35H37.47v.53C16.24,3.84,0,22.2,0,44.35s16.24,40.51,37.47,43.82v.98h272.24v-.8c21.9-2.71,38.86-21.37,38.86-44Z"/>
      <g>
        <path class="cls-1" d="M280.83,59.13l22.6-29.72h0v-13.59h-44.69v14.88c8.1.2,14.56,0,21.62.14l-21.51,28.28h-.11v14.21h45.24v-14.21h-23.15Z"/>
        <polygon class="cls-1" points="67.91 26.92 55.7 26.92 55.7 38.47 44.59 38.47 44.59 49.57 55.7 49.57 55.7 61.34 67.91 61.34 67.91 49.57 78.57 49.57 78.57 38.47 67.91 38.47 67.91 26.92"/>
        <polygon class="cls-1" points="85.01 15.82 85.01 30.03 85.01 37.47 85.01 51.68 85.01 73.33 101.89 73.33 101.89 51.68 128.2 51.68 128.2 37.47 101.89 37.47 101.89 30.03 128.2 30.03 128.2 15.82 101.89 15.82 85.01 15.82"/>
        <polygon class="cls-1" points="136.25 15.82 136.25 30.03 136.25 37.47 136.25 51.68 136.25 59.13 136.25 73.33 153.13 73.33 179.44 73.33 179.44 59.13 153.13 59.13 153.13 51.68 179.44 51.68 179.44 37.47 153.13 37.47 153.13 30.03 179.44 30.03 179.44 15.82 153.13 15.82 136.25 15.82"/>
        <polygon class="cls-1" points="204.37 15.82 187.49 15.82 187.49 59.13 187.49 73.33 204.37 73.33 226.46 73.33 226.46 59.13 204.37 59.13 204.37 15.82"/>
        <rect class="cls-1" x="233.58" y="15.82" width="17.81" height="57.51"/>
      </g>
    </g>
  </g>
</svg>